<svg  viewBox="0 0 500 500" xmlns="http://www.w3.org/2000/svg">
    <style>#curve{
  stroke-dasharray: 348;
  stroke-dashoffset: 0;
  

}
@keyframes sign {
from{stroke-dashoffset: 348;}
  to{
    stroke-dashoffset: 0;
  }
}</style>
    <path id="curve" d="M 70.16647009724969 90.17479737906969 C 64.00477632224758 90.17479705810547 60.34178570890518 100.07932406781455 58.668399810791016 105.07373046875 C 56.15940954983208 112.56209106348182 55.30802288295443 128.59232490717267 59.33805465698242 135.59910583496094 C 61.15601055913957 138.75987960972034 69.38572691068653 142.06956705853256 72.7732162475586 142.63221740722656 C 81.84841242593072 144.13957633486902 82.19564258155911 138.5027598362279 83.21772003173828 131.7073974609375 C 83.53503331601061 129.5977151147063 83.41230010986328 127.10565181404363 83.41230010986328 124.97403717041016 C 83.41230010986328 124.01045735677083 83.41230010986328 121.11971791585286 83.41230010986328 122.08329772949219 C 83.41230010986328 125.8203741209435 81.84901253943478 146.32756569105987 91.30615997314453 142.97581481933594 C 95.374860852281 141.5338079336423 93.00308227539062 126.98038461404025 93.00308227539062 124.20270538330078 C 93.00308227539062 123.3974838256836 93.00308227539062 125.81314849853516 93.00308227539062 126.61837005615234 C 93.00308227539062 128.01494344075525 93.00308227539062 129.4115168253581 93.00308227539062 130.80809020996094 C 93.00308227539062 135.07511892393458 94.03314674236465 142.5033340865024 99.974853515625 141.00892639160156 C 105.90671145552615 139.51699579173746 102.24470059334085 127.52539976566456 98.58295440673828 125.69452667236328 C 96.47836399465744 124.64223146632287 96.94326666012822 131.01993656144802 98.92654418945312 131.605712890625 C 101.54356147908838 132.37866915047687 104.985242640113 130.82634439716935 106.34358215332031 128.7044677734375 C 106.87078466533099 127.88091911323046 107.41643524169922 127.10483178936619 107.41643524169922 126.11174774169922 C 107.41643524169922 125.64925585874143 107.77229309082031 124.30819140561643 107.77229309082031 124.77068328857422 C 107.77229309082031 130.40023113824614 104.87071904632448 139.16778021108777 113.05590057373047 140.64779663085938 C 119.51203463083286 141.81517262377596 119.93355858482686 135.7833073975465 118.38333892822266 131.37255859375 C 117.97494492774116 130.2105791662363 117.8309705932948 128.81951835950727 117.52435302734375 127.59304809570312 C 117.40542507775491 127.11733629734778 117.63968439300479 125.82884109055423 117.26490783691406 126.14505004882812 C 117.13336886222083 126.2560329838175 117.86064793355193 128.9206700352067 117.92053985595703 129.20407104492188 C 118.36237832548998 131.29479485822156 121.73090813165763 142.33855069769743 125.72148895263672 140.31472778320312 C 126.73058724599069 139.80296362137221 126.57170104980469 137.36898073277936 126.57170104980469 136.43704223632812 C 126.57170104980469 131.93081914033064 129.56060791015625 127.46235480352051 129.56060791015625 123.49799346923828 C 129.56060791015625 122.24404347579092 129.00573211341575 125.94397298628803 128.6998748779297 127.16004943847656 C 127.94313961089061 130.16879937805 128.11497971007992 131.77007209917332 131.2329864501953 133.3236846923828 C 135.40053239029015 135.40025231874748 146.68436127535688 134.01835023626063 143.0641326904297 126.77789306640625 C 142.28556030498734 125.22074829552153 137.35936893644413 124.20403946181982 136.711181640625 126.36768341064453 C 135.54262662152405 130.26831060937948 135.00217162087785 137.8202539619764 138.1381378173828 140.95632934570312 C 143.25192359201043 146.07029317073898 155.6981658935547 140.67106750861214 155.6981658935547 133.93899536132812" style="stroke: rgb(0, 0, 0); fill: rgb(255, 255, 255); stroke-width: 3px;"/>
  </svg>