<svg viewBox="0 0 500 500" xmlns="http://www.w3.org/2000/svg">
  <style>#hellohappy{
  stroke-dasharray: 843;
  stroke-dashoffset: 0;
}
@keyframes sign {
from{
stroke-dashoffset: 843;
}
  to{
  
    stroke-dashoffset: 0;
  }

}</style>
  <path id="hellohappy" d="M 48.86374845163466 117.52369142064639 C 57.85044316676243 112.99889378983195 65.84002146966476 107.43875575022088 72.95201873779297 100.3125228881836 C 75.73611342052185 97.5228554753462 76.7919127184918 94.86688176589266 77.39593505859375 91.21784210205078 C 77.58119428969891 90.09864793072012 78.34705830476929 85.86180641833649 75.51844787597656 87.73634338378906 C 71.64016799482982 90.30650254235634 73.23600769042969 99.43939155749571 73.23600769042969 103.50477600097656 C 73.23600769042969 118.3345837667805 72.89592742919922 133.15110780717805 72.89592742919922 147.99647521972656 C 72.89592742919922 154.00583394368488 72.89592742919922 160.01519266764328 72.89592742919922 166.02455139160156 C 72.89592742919922 168.10538736979174 72.89592742919922 170.18622334798172 72.89592742919922 172.26705932617188 C 72.89592742919922 173.3720448811849 72.89592742919922 176.68700154622397 72.89592742919922 175.58201599121094 C 72.89592742919922 165.51902001831317 71.44792938232422 155.69705683475408 71.44792938232422 145.55625915527344 C 71.44792938232422 143.91137713221556 70.29828852761982 136.30114579885696 71.44792938232422 135.074951171875 C 72.00295468875177 134.4829671224255 77.04899892934368 136.44235208684407 78.37411499023438 136.24070739746094 C 83.97978704342742 135.38768475792696 89.41411827142751 132.63181770203695 94.9542007446289 131.70213317871094 C 96.17546134811676 131.49719271302246 99.7461989255288 131.49501253145317 100.421875 130.12442016601562 C 101.06822498023196 128.81331506435882 100.421875 125.17464487883983 100.421875 123.8608627319336 C 100.421875 119.45825232306272 100.94371610582431 115.3488106229104 101.80150604248047 111.02523803710938 C 102.29092097409053 108.55840916564979 103.51159723550116 97.49424339641047 101.62269592285156 95.3988037109375 C 101.54415780003796 95.31167798432381 100.3044204711914 102.77981760772285 100.3044204711914 103.97283172607422 C 100.3044204711914 109.67716471354166 100.3044204711914 115.38149770100912 100.3044204711914 121.08583068847656 C 100.3044204711914 132.15900833371566 101.13111506289255 143.3005187704336 102.06796264648438 154.29331970214844 C 102.53476585584292 159.77070454535885 102.88004367514296 167.07456742696826 106.02278137207031 171.9427490234375 C 107.67457042792013 174.50141279318171 110.80554722004943 169.85402914734527 111.46415710449219 168.68563842773438 C 114.54484194874217 163.22042500307847 119.11537007355844 158.0253169246216 122.64493560791016 152.69456481933594 C 123.86078736858617 150.85824692982283 125.37279241561517 146.88122680360928 122.4258041381836 145.84552001953125 C 117.84831732098417 144.2367812990864 116.58489530549433 148.30221655318198 115.71874237060547 151.74618530273438 C 113.39238961785237 160.996152436939 117.31019628968937 175.81753937004694 128.5456085205078 174.40048217773438 C 149.57206144611962 171.74853797355723 149.69757080078125 142.55920132823402 149.69757080078125 126.94092559814453 C 149.69757080078125 122.1904756228991 147.87483808421703 106.89912403766051 140.00686645507812 108.84272766113281 C 138.84139690087935 109.13063043396414 139.00897395924264 111.3235040170898 138.90420532226562 112.15418243408203 C 138.43049731703925 115.91006804309639 138.85337829589844 119.6970127221967 138.85337829589844 123.45767211914062 C 138.85337829589844 135.36640078460192 137.64814660740436 149.0861989663696 144.5086212158203 159.4121551513672 C 146.7443208178864 162.77718999974795 155.3264702966503 168.04320351683876 159.7686767578125 165.46884155273438 C 162.44900267488822 163.91553034294478 164.12389000398 158.96074059981237 165.21531677246094 156.31982421875 C 170.48003046731498 143.58083976293108 172.35011291503906 133.09048899679814 172.35011291503906 118.99447631835938 C 172.35011291503906 115.24799459919548 172.7566422767537 101.51797699941261 166.13389587402344 102.61424255371094 C 162.50908009308674 103.21425959191123 161.499466196443 114.04299715721595 159.938720703125 117.15380096435547 C 153.82356258066167 129.34224376304522 158.0841166968807 142.70955419454268 163.7322540283203 154.00582885742188 C 166.3825892644019 159.30649932958505 171.3080882434287 166.29501152278155 177.76870727539062 167.146484375 C 184.70521526267206 168.0606766855429 189.63706584898335 154.5193151594911 190.1958770751953 149.13243103027344 C 190.36778206713942 147.47528416313853 191.45322735566805 141.6218239439473 189.57530212402344 140.682861328125 C 186.2786288565737 139.03452469440015 187.16665649414062 149.33170467615398 187.16665649414062 150.88369750976562 C 187.16665649414062 157.8970787002552 193.33886435423804 163.72446506513802 200.20213317871094 162.25906372070312 C 204.07722820670025 161.43167816885355 203.21840195504427 156.32273681430183 203.78004455566406 153.65347290039062 C 205.40105654476085 145.9494475972201 201.23551920554468 141.568079147257 193.9298095703125 140.34628295898438 C 188.80882180499046 139.48985645912904 184.87351833856255 145.95065615517706 190.5447235107422 146.97621154785156 C 193.39425267453947 147.4915076642487 195.9191459381946 146.17293303209203 198.59109497070312 145.72454833984375 C 203.97385122329544 144.82125809126435 209.54164241608314 144.81533948122782 214.90823364257812 143.6244354248047 C 215.97995428465333 143.3866091387819 220.19788099349284 140.75473022460938 220.42147827148438 140.75473022460938" style="stroke: rgb(0, 0, 0); fill: rgb(255, 254, 254); stroke-width: 5px;"/>
</svg>