<svg viewBox="0 0 500 500" xmlns="http://www.w3.org/2000/svg">
<style>#line{
  stroke-dasharray: 285;
  stroke-dashoffset: 0;

}
@keyframes sign {
from{stroke-dashoffset: 285;}
  to{
    stroke-dashoffset: 0;
  }

}</style>
    <path id="line" d="M 64.23950318778421 90.96716325989736 C 64.239501953125 104.85329323135085 65.52993760592774 119.41917485191428 63.4138298034668 133.14486694335938 C 62.580629547272984 138.549246698365 62.45304288076418 143.94147989415228 61.101593017578125 149.29896545410156 C 61.0710312098143 149.4201201104753 59.79913171138769 154.91593268502533 58.48433303833008 153.4676513671875 C 57.06836306054145 151.90792750415568 57.83516525675233 138.34484326979393 61.382076263427734 140.84414672851562 C 63.10767722838464 142.0600781268432 63.16560271372752 144.7365809119195 64.59185791015625 146.16281127929688 C 67.90710935574799 149.47800501112982 76.60198449094398 151.8182015825392 81.21051025390625 150.974853515625 C 84.9923885523415 150.28277975574218 85.43201585442681 140.69890915584014 85.85426330566406 138.1479949951172 C 85.97365997590366 137.4266865396963 86.75008380394438 134.1832382814974 86.16980743408203 133.48495483398438 C 85.91679923505615 133.18049398284413 85.8332290649414 135.77155179998164 85.8332290649414 136.06015014648438 C 85.8332290649414 137.67303806383578 85.68597412109375 139.25950042899137 85.68597412109375 140.90374755859375 C 85.68597412109375 144.77573364966565 92.22800737598993 151.40280286819987 96.5354232788086 148.5083465576172 C 99.97964919505274 146.19392843239697 99.45069885253906 136.53146033661093 99.45069885253906 132.96957397460938 C 99.45069885253906 132.45594278971353 99.45069885253906 133.99683634440103 99.45069885253906 134.51046752929688 C 99.45069885253906 135.3978378132823 99.66780206477453 136.64664905898283 99.45069885253906 137.5098876953125 C 98.7409558590656 140.33194439139703 99.00894165039062 143.48516754574823 99.00894165039062 146.46083068847656 C 99.00894165039062 146.77439293812785 99.04011152035218 150.93893119543208 99.46297454833984 150.72067260742188 C 100.2632499125114 150.30761457339455 99.95293945994477 147.24106232827316 100.08354187011719 146.45205688476562 C 100.55411621801619 143.6091865152437 105.06019106196712 134.0280305689275 109.31320190429688 136.15480041503906 C 110.29237840039166 136.64444954200314 110.26333618164062 139.32116380052142 110.26333618164062 140.2814178466797 C 110.26333618164062 143.7640003229122 112.21327256298906 153.81728831462712 118.1817398071289 150.81532287597656 C 123.06854534211413 148.3574018182987 127.55916377988284 138.85825240957038 126.23512268066406 133.5620880126953 C 125.66869430874334 131.29637452501242 121.12920955650165 131.01739474902834 119.97508239746094 132.54708862304688 C 114.722484900967 139.50894386588703 121.2746830346699 151.6547349825937 128.84536743164062 152.65249633789062 C 130.3193965332281 152.8467626944086 133.63799204470232 153.1710712327001 134.91082763671875 152.2107391357422 C 136.61876026026158 150.9221339709296 137.36465557341978 147.3320770263672 135.0475616455078 147.3320770263672" style="stroke: rgb(0, 0, 0); fill: rgb(255, 255, 255); stroke-width: 3px;"/>
  </svg>